<svg width="16" height="16" viewBox="0 0 16 16" fill="none" xmlns="http://www.w3.org/2000/svg">
<path fill-rule="evenodd" clip-rule="evenodd" d="M7.70801 0C11.9648 0.000131688 15.416 3.44469 15.416 7.69336C15.4158 11.9419 11.9647 15.3856 7.70801 15.3857C3.45123 15.3857 0.000172473 11.942 0 7.69336C0 3.44461 3.45113 0 7.70801 0ZM8.1377 1.9375C7.25571 1.93751 5.70237 2.06545 5.20801 2.92285C5.00073 3.28271 5.0021 3.7139 5.21094 4.07617C5.41856 4.43652 5.89672 5.26658 10.9326 5.60449C11.1429 6.10083 11.2441 6.65476 11.2441 7.20703C11.2441 8.24248 10.8809 9.24751 10.248 9.96387C9.52611 10.7809 8.4746 11.2129 7.20703 11.2129C4.11912 11.2129 3.79956 8.10975 3.77344 7.75977C3.74629 7.34811 3.4503 7.00404 3.04785 6.91602C2.64527 6.82877 2.24301 7.02273 2.03809 7.38086C1.73936 7.903 1.97469 8.93369 2.46094 9.97656C3.1493 11.5279 4.57738 13.0654 7.20703 13.0654C9.49671 13.0654 10.8776 12.0459 11.6328 11.1914C12.5744 10.1254 13.0928 8.71028 13.0928 7.20703C13.0928 6.69984 13.0288 6.19124 12.9023 5.70117C13.2848 5.57244 13.4581 5.18993 13.3955 4.81348C13.3329 4.43702 13.0574 3.85389 12.0107 3.81152C11.1815 2.70033 9.88241 1.9375 8.1377 1.9375ZM6.41602 5.95215C5.56382 5.95215 4.87012 6.64714 4.87012 7.50098C4.87015 8.35503 5.56383 9.0498 6.41602 9.0498C7.26814 9.0496 7.96091 8.3549 7.96094 7.50098C7.96094 6.64728 7.26816 5.95236 6.41602 5.95215Z" fill="white"/>
</svg>
